<?xml version="1.0" encoding="UTF-8"?><svg xmlns="http://www.w3.org/2000/svg" xmlns:xlink="http://www.w3.org/1999/xlink" viewBox="0 0 255.82 201.68"><defs><style>.cls-1{isolation:isolate;}.cls-2{fill:#3c7bbe;}.cls-3{fill:#fff;}.cls-4{fill:url(#linear-gradient);mix-blend-mode:multiply;}.cls-5{fill:#3b7abd;}.cls-6{fill:#195177;}.cls-7{fill:#172e50;}</style><linearGradient id="linear-gradient" x1="60.49" y1="103.02" x2="65.13" y2="8.95" gradientUnits="userSpaceOnUse"><stop offset="0" stop-color="#fff"/><stop offset="1" stop-color="#6a2c07"/></linearGradient></defs><g class="cls-1"><g id="Layer_2"><g id="Layer_1-2"><path class="cls-2" d="M127.74,68.9L0,0v147.87c0,3.42,1.59,6.65,4.31,8.73l58.79,45.09,60.24-45.09c2.77-2.08,4.41-5.34,4.41-8.8v-78.89h0Z"/><polygon class="cls-4" points="0 0 30.77 111.68 127.74 68.9 0 0"/><polygon class="cls-5" points="38.44 95.23 127.74 68.9 0 0 38.44 95.23"/><path class="cls-3" d="M9.87,124.45s22.65,13.94,51.1.58c0,0,33.1,11.03,57.49-.58v17.5c0,5.05-2.44,9.79-6.56,12.71l-49.77,35.4-46.35-36.53c-3.76-2.97-5.95-7.5-5.94-12.29l.03-16.8Z"/><path class="cls-7" d="M90.61,169.81c-21.75-9.53-42.11-4.94-54.37-.14l25.88,20.4,28.48-20.26Z"/><path class="cls-6" d="M90.61,169.81s-31.07,13.96-34.48,15.53l6,4.73,28.48-20.26Z"/><path class="cls-5" d="M157.7,84.12c0,4.2-.85,7.33-2.55,9.39-1.7,2.06-4.46,3.09-8.28,3.09h-3.67v14.61h-6.99v-39.52h10.65c3.89,0,6.67,1.03,8.33,3.09,1.66,2.06,2.49,5.17,2.49,9.34ZM150.65,84.12c0-2.1-.3-3.65-.89-4.64-.59-.99-1.63-1.49-3.12-1.49h-3.44v12.26h3.44c1.49,0,2.53-.5,3.12-1.49s.89-2.54.89-4.64Z"/><path class="cls-5" d="M165.66,103.53l-1.6,7.68h-7.33l10.14-39.52h6.87l10.08,39.52h-7.33l-1.6-7.68h-9.22ZM170.3,81.19l-3.32,16.04h6.65l-3.32-16.04Z"/><path class="cls-5" d="M208.05,84.12c0,4.2-.85,7.33-2.55,9.39-1.7,2.06-4.46,3.09-8.28,3.09h-3.67v14.61h-6.99v-39.52h10.65c3.89,0,6.67,1.03,8.33,3.09,1.66,2.06,2.49,5.17,2.49,9.34ZM201,84.12c0-2.1-.3-3.65-.89-4.64-.59-.99-1.63-1.49-3.12-1.49h-3.44v12.26h3.44c1.49,0,2.53-.5,3.12-1.49s.89-2.54.89-4.64Z"/><path class="cls-5" d="M218.42,87.95h9.17v6.3h-9.17v10.65h10.65v6.3h-17.64v-39.52h17.64v6.36h-10.65v9.91Z"/><path class="cls-5" d="M239.96,95.34v15.87h-7.04v-39.52h10.77c3.9,0,6.65.94,8.28,2.81,1.62,1.87,2.43,4.87,2.43,8.99,0,2.63-.36,4.83-1.09,6.59s-1.91,3.07-3.55,3.95l5.9,17.18h-7.33l-4.98-15.87h-3.38ZM243.62,89.04c1.41,0,2.39-.47,2.92-1.4.53-.94.8-2.32.8-4.15s-.26-3.21-.77-4.12c-.52-.92-1.5-1.37-2.95-1.37h-3.67v11.05h3.67Z"/><path class="cls-5" d="M160.33,151.22h.69v5.79h-2.75c-1.26,0-2.22-.23-2.89-.69-.67-.46-1.4-1.32-2.21-2.58-1.07,1.38-2.27,2.36-3.61,2.95-1.34.59-2.88.89-4.64.89-2.67,0-4.83-.84-6.47-2.52-1.64-1.68-2.46-3.91-2.46-6.7,0-1.99.49-3.94,1.46-5.87s2.61-4.12,4.9-6.56c-1.49-2.44-2.55-4.4-3.18-5.87-.63-1.47-.94-2.95-.94-4.44,0-2.6.82-4.7,2.46-6.3,1.64-1.6,3.78-2.41,6.42-2.41s4.72.8,6.36,2.41c1.64,1.6,2.46,3.71,2.46,6.3,0,1.68-.44,3.4-1.32,5.16-.88,1.76-2.35,3.74-4.41,5.96l3.49,5.84,2.63-4.24,4.75,3.27-4.12,6.42,1.03,1.72c.31.53.64.92,1,1.15.36.23.81.34,1.35.34ZM150.02,148.53l-4.41-7.22c-1.11,1.26-1.88,2.38-2.32,3.35-.44.97-.66,1.98-.66,3.01,0,1.22.28,2.16.83,2.81.55.65,1.31.97,2.26.97.76,0,1.47-.21,2.12-.63.65-.42,1.38-1.18,2.18-2.29ZM144.58,125.28c0,.69.16,1.48.49,2.38s.93,2.09,1.8,3.58c1.07-1.22,1.79-2.26,2.15-3.12.36-.86.54-1.8.54-2.83s-.22-1.81-.66-2.35c-.44-.54-1.04-.8-1.8-.8-.8,0-1.42.28-1.86.83s-.66,1.33-.66,2.32Z"/><path class="cls-5" d="M202.89,129.92c0,4.2-.85,7.33-2.55,9.39-1.7,2.06-4.46,3.09-8.28,3.09h-3.67v14.61h-6.99v-39.52h10.65c3.89,0,6.67,1.03,8.33,3.09,1.66,2.06,2.49,5.17,2.49,9.34ZM195.85,129.92c0-2.1-.3-3.65-.89-4.64-.59-.99-1.63-1.49-3.12-1.49h-3.44v12.26h3.44c1.49,0,2.53-.5,3.12-1.49s.89-2.54.89-4.64Z"/><path class="cls-5" d="M216.13,133.75h9.17v6.3h-9.17v10.65h10.65v6.3h-17.64v-39.52h17.64v6.36h-10.65v9.91Z"/><path class="cls-5" d="M255.82,157.01h-7.05l-8.25-21.08v21.08h-7.04v-39.52h7.04l8.25,22v-22h7.05v39.52Z"/><path class="cls-5" d="M136.74,179.33v-8.01c0-1.95.48-3.41,1.43-4.38.95-.97,2.22-1.46,3.79-1.46s2.76.46,3.73,1.39,1.45,2.33,1.45,4.2v.25h-2.03v-.2c0-1.32-.28-2.28-.85-2.89-.57-.61-1.32-.92-2.27-.92-1.08,0-1.88.34-2.42,1.01-.54.68-.81,1.74-.81,3.18v7.84c0,2.63,1.07,3.95,3.22,3.95.96,0,1.72-.31,2.28-.92.56-.61.83-1.55.83-2.81v-.25h1.97v.28c0,1.85-.47,3.24-1.42,4.16-.95.92-2.17,1.38-3.67,1.38-1.58,0-2.84-.49-3.81-1.46-.96-.97-1.45-2.42-1.45-4.35Z"/><path class="cls-5" d="M155.53,180.25v-5.03c0-1.69.38-2.92,1.14-3.71.76-.79,1.83-1.18,3.2-1.18s2.38.4,3.13,1.2c.75.8,1.13,2.03,1.13,3.7v5.03c0,1.67-.38,2.9-1.13,3.7-.75.8-1.79,1.2-3.13,1.2s-2.44-.39-3.2-1.18c-.76-.79-1.14-2.03-1.14-3.71ZM162.23,180.02v-4.59c0-1.22-.2-2.1-.61-2.63-.41-.53-1-.79-1.78-.79s-1.38.26-1.79.78c-.42.52-.63,1.4-.63,2.64v4.59c0,1.24.21,2.12.63,2.64.42.52,1.01.78,1.79.78s1.37-.26,1.78-.79c.41-.53.61-1.4.61-2.63Z"/><path class="cls-5" d="M174.57,170.54v1.31c.28-.46.66-.83,1.15-1.11.49-.28,1.04-.42,1.65-.42.69,0,1.3.16,1.83.49.54.32.96.76,1.28,1.32.35-.57.8-1.02,1.35-1.33.55-.32,1.15-.47,1.82-.47,1.22,0,2.15.37,2.78,1.1.63.73.95,1.77.95,3.1v10.4h-1.92v-10.31c0-.83-.2-1.47-.6-1.92-.4-.44-.93-.67-1.6-.67s-1.24.23-1.65.68-.63,1.08-.63,1.88v10.34h-1.89v-10.31c0-.82-.2-1.45-.61-1.9-.41-.45-.95-.68-1.64-.68s-1.21.23-1.61.68c-.41.45-.61,1.09-.61,1.9v10.31h-1.92v-14.37h1.86Z"/><path class="cls-5" d="M198.11,170.54v1.39c.63-1.08,1.54-1.61,2.72-1.61s2.07.4,2.77,1.21,1.04,2.03,1.04,3.68v5.03c0,1.65-.35,2.88-1.04,3.68-.7.81-1.61,1.21-2.74,1.21-1.21,0-2.12-.5-2.75-1.5v5.5h-1.89v-18.6h1.89ZM202.76,180.02v-4.59c0-2.28-.75-3.42-2.25-3.42-.78,0-1.37.29-1.78.88-.41.58-.61,1.44-.61,2.57v4.59c0,1.11.2,1.96.61,2.53.41.58,1,.86,1.78.86s1.3-.26,1.68-.79c.38-.53.57-1.4.57-2.63Z"/><path class="cls-5" d="M221.1,174.49v10.43h-1.81v-1.33c-.65,1.04-1.62,1.56-2.92,1.56-1.19,0-2.09-.38-2.72-1.12-.63-.75-.95-1.8-.95-3.16s.37-2.31,1.1-3.04c.73-.73,1.79-1.1,3.18-1.1h2.22v-2.31c0-1.61-.74-2.42-2.22-2.42-.69,0-1.21.19-1.58.56-.37.37-.56.89-.56,1.56v.22h-1.78v-.25c0-1.17.36-2.08,1.07-2.75.71-.67,1.66-1,2.85-1,1.33,0,2.35.37,3.06,1.1.71.73,1.06,1.76,1.06,3.07ZM219.21,180.8v-2.67h-2.03c-1.72,0-2.58.9-2.58,2.7s.74,2.67,2.22,2.67c.76,0,1.35-.24,1.77-.71s.62-1.14.62-1.99Z"/><path class="cls-5" d="M231.77,170.54v1.31c.28-.46.67-.83,1.17-1.11.5-.28,1.06-.42,1.67-.42,1.15,0,2.04.37,2.67,1.11.63.74.95,1.77.95,3.09v10.4h-1.89v-10.31c0-.83-.2-1.47-.61-1.92-.41-.44-.95-.67-1.64-.67s-1.21.23-1.63.68-.62,1.09-.62,1.9v10.31h-1.89v-14.37h1.83Z"/><path class="cls-5" d="M251.09,186.28c-.28,1.08-.75,1.83-1.42,2.27s-1.58.65-2.75.65h-.28v-1.7h.47c.72,0,1.28-.14,1.67-.42.39-.28.66-.74.81-1.39l.11-.45-3.89-14.71h2.06l2.72,10.98,2.64-10.98h2.06l-4.2,15.74Z"/></g></g></g></svg>